<?xml version="1.0" encoding="UTF-8"?>
<!DOCTYPE svg PUBLIC "-//W3C//DTD SVG 1.1//EN" "http://www.w3.org/Graphics/SVG/1.1/DTD/svg11.dtd">
<!-- Creator: CorelDRAW X8 -->
<svg xmlns="http://www.w3.org/2000/svg" xml:space="preserve" width="1024px" height="1024px" version="1.1" style="shape-rendering:geometricPrecision; text-rendering:geometricPrecision; image-rendering:optimizeQuality; fill-rule:evenodd; clip-rule:evenodd"
viewBox="0 0 1046 1046"
 xmlns:xlink="http://www.w3.org/1999/xlink">
 <defs>
  <style type="text/css">
   <![CDATA[
    .fil0 {fill:none}
    .fil4 {fill:#434242}
    .fil2 {fill:#2F9C3B}
    .fil3 {fill:#196CB2}
    .fil1 {fill:#186BB2}
    .fil5 {fill:#6F31A1}
    .fil6 {fill:#DBDDDC}
    .fil7 {fill:#DDDEDD}
    .fil14 {fill:#FEFEFE;fill-rule:nonzero}
    .fil11 {fill:url(#id5)}
    .fil9 {fill:url(#id6)}
    .fil10 {fill:url(#id7)}
    .fil12 {fill:url(#id8)}
    .fil8 {fill:url(#id9)}
    .fil13 {fill:url(#id10)}
   ]]>
  </style>
       <clipPath id="id0">
        <path d="M463 416l215 0 0 283 -215 0 0 -283z"/>
       </clipPath>
       <clipPath id="id1">
        <path d="M326 301l391 0 3 388 -392 0 -2 -388z"/>
       </clipPath>
       <clipPath id="id2">
        <path d="M300 425l250 0 -1 139 -251 0 2 -139z"/>
       </clipPath>
        <clipPath id="id3">
         <path d="M335 330l378 0 1 352 -378 0 -1 -352z"/>
        </clipPath>
      <clipPath id="id4">
       <path d="M485 673l200 0 0 77 -200 0 0 -77z"/>
      </clipPath>
  <linearGradient id="id5" gradientUnits="userSpaceOnUse" x1="772.5" y1="671.891" x2="772.5" y2="750.165">
   <stop offset="0" style="stop-opacity:1; stop-color:#2B2A29"/>
   <stop offset="0.0392157" style="stop-opacity:1; stop-color:#4A4A49"/>
   <stop offset="0.0784314" style="stop-opacity:1; stop-color:#6B6B6B"/>
   <stop offset="0.129412" style="stop-opacity:1; stop-color:#A6A7A7"/>
   <stop offset="0.168627" style="stop-opacity:1; stop-color:gainsboro"/>
   <stop offset="0.258824" style="stop-opacity:1; stop-color:#EEEEEE"/>
   <stop offset="0.521569" style="stop-opacity:1; stop-color:#FEFEFE"/>
   <stop offset="0.768627" style="stop-opacity:1; stop-color:#EEEEEE"/>
   <stop offset="0.839216" style="stop-opacity:1; stop-color:gainsboro"/>
   <stop offset="0.878431" style="stop-opacity:1; stop-color:#A6A7A7"/>
   <stop offset="0.921569" style="stop-opacity:1; stop-color:#6B6B6B"/>
   <stop offset="0.960784" style="stop-opacity:1; stop-color:#4A4A49"/>
   <stop offset="1" style="stop-opacity:1; stop-color:#2B2A29"/>
  </linearGradient>
  <linearGradient id="id6" gradientUnits="userSpaceOnUse" x1="737.82" y1="645.415" x2="788.493" y2="696.089">
   <stop offset="0" style="stop-opacity:1; stop-color:#EBECEC"/>
   <stop offset="0" style="stop-opacity:1; stop-color:#E3E3E3"/>
   <stop offset="0" style="stop-opacity:1; stop-color:#D9DADA"/>
   <stop offset="0.0588235" style="stop-opacity:1; stop-color:#EBECEC"/>
   <stop offset="0.109804" style="stop-opacity:1; stop-color:#FEFEFE"/>
   <stop offset="0.188235" style="stop-opacity:1; stop-color:#D2D2D3"/>
   <stop offset="0.25098" style="stop-opacity:1; stop-color:#A2A3A3"/>
   <stop offset="0.301961" style="stop-opacity:1; stop-color:#BEBEBF"/>
   <stop offset="0.309804" style="stop-opacity:1; stop-color:#D9DADA"/>
   <stop offset="0.509804" style="stop-opacity:1; stop-color:#9D9E9E"/>
   <stop offset="0.65098" style="stop-opacity:1; stop-color:#5B5B5B"/>
   <stop offset="0.701961" style="stop-opacity:1; stop-color:#727271"/>
   <stop offset="0.741176" style="stop-opacity:1; stop-color:#898989"/>
   <stop offset="0.74902" style="stop-opacity:1; stop-color:#5B5B5B"/>
   <stop offset="0.780392" style="stop-opacity:1; stop-color:#2B2A29"/>
   <stop offset="0.811765" style="stop-opacity:1; stop-color:#9D9E9E"/>
   <stop offset="0.878431" style="stop-opacity:1; stop-color:#FEFEFE"/>
   <stop offset="0.909804" style="stop-opacity:1; stop-color:#DDDDDE"/>
   <stop offset="1" style="stop-opacity:1; stop-color:#BABBBB"/>
  </linearGradient>
  <linearGradient id="id7" gradientUnits="userSpaceOnUse" xlink:href="#id5" x1="687.114" y1="663.474" x2="766.477" y2="663.474">
  </linearGradient>
  <radialGradient id="id8" gradientUnits="userSpaceOnUse" gradientTransform="matrix(1.42298 -0 -0 -1.26318 -309 1581)" cx="730.31" cy="698.377" r="331.474" fx="730.31" fy="698.377">
   <stop offset="0" style="stop-opacity:1; stop-color:#FEFEFE"/>
   <stop offset="0.239216" style="stop-opacity:1; stop-color:#4EC2F0"/>
   <stop offset="0.368627" style="stop-opacity:1; stop-color:#2688C5"/>
   <stop offset="0.490196" style="stop-opacity:1; stop-color:#245198"/>
   <stop offset="0.568627" style="stop-opacity:1; stop-color:#2A396A"/>
   <stop offset="0.701961" style="stop-opacity:1; stop-color:#292643"/>
   <stop offset="0.741176" style="stop-opacity:1; stop-color:#26233B"/>
   <stop offset="1" style="stop-opacity:1; stop-color:#232031"/>
  </radialGradient>
  <radialGradient id="id9" gradientUnits="userSpaceOnUse" gradientTransform="matrix(1.02109 -0 -0 -1.02108 -15 1437)" cx="729.738" cy="711.18" r="357.997" fx="729.738" fy="711.18">
   <stop offset="0" style="stop-opacity:1; stop-color:#FEFEFE"/>
   <stop offset="0.368627" style="stop-opacity:1; stop-color:#BAE3F9"/>
   <stop offset="0.631373" style="stop-opacity:1; stop-color:#4EC2F0"/>
   <stop offset="0.780392" style="stop-opacity:1; stop-color:#2688C5"/>
   <stop offset="0.858824" style="stop-opacity:1; stop-color:#245198"/>
   <stop offset="0.901961" style="stop-opacity:1; stop-color:#2A396A"/>
   <stop offset="0.941176" style="stop-opacity:1; stop-color:#292643"/>
   <stop offset="0.94902" style="stop-opacity:1; stop-color:#26233B"/>
   <stop offset="1" style="stop-opacity:1; stop-color:#232031"/>
  </radialGradient>
  <radialGradient id="id10" gradientUnits="userSpaceOnUse" gradientTransform="matrix(1.44262 -4.81298E-06 -4.81296E-06 -1.44262 -331 1821)" cx="748.3" cy="745.516" r="330.795" fx="748.3" fy="745.516">
   <stop offset="0" style="stop-opacity:1; stop-color:#FEFEFE"/>
   <stop offset="0.321569" style="stop-opacity:1; stop-color:#BAE3F9"/>
   <stop offset="0.541176" style="stop-opacity:1; stop-color:#4EC2F0"/>
   <stop offset="0.729412" style="stop-opacity:1; stop-color:#2688C5"/>
   <stop offset="0.831373" style="stop-opacity:1; stop-color:#245198"/>
   <stop offset="0.890196" style="stop-opacity:1; stop-color:#2A396A"/>
   <stop offset="0.929412" style="stop-opacity:1; stop-color:#292643"/>
   <stop offset="0.941176" style="stop-opacity:1; stop-color:#26233B"/>
   <stop offset="1" style="stop-opacity:1; stop-color:#232031"/>
  </radialGradient>
 </defs>
 <g id="Layer_x0020_1">
  <metadata id="CorelCorpID_0Corel-Layer"/>
  <g id="_542286880">
   <polygon class="fil0" points="0,0 1046,0 1046,1046 0,1046 "/>
   <g>
    <path class="fil1" d="M791 654l-536 0 0 -322 536 0 0 322zm54 2c30,1 54,26 54,56l0 0c0,31 -25,56 -55,56l-641 0c-31,0 -56,-25 -56,-56l0 0c0,-30 25,-55 55,-56l0 -377 643 0 0 377z"/>
    <g>
     <g>
      <g style="clip-path:url(#id0)">
       <image x="463" y="416" width="214" height="283" xlink:href="icon_Images\icon_ImgID1.png"/>
      </g>
     </g>
     <path class="fil2" d="M515 621c-1,4 -2,7 -3,10 3,0 6,0 9,0 1,0 3,0 4,0l4 -10c-3,1 -5,1 -8,1 -2,0 -4,0 -6,-1zm-14 15c-7,21 -12,37 -13,39l31 0 13 -38c-3,1 -7,1 -10,1 -7,0 -14,-1 -21,-2zm40 -22l54 -157c0,-1 1,-1 3,-1 1,0 2,0 2,1l35 96 3 0c7,-13 13,-23 15,-39 -5,-15 -13,-37 -17,-47 -6,-16 -10,-26 -11,-28 -3,-3 -7,-5 -11,-7 -5,-2 -11,-3 -16,-3 -6,0 -11,1 -16,3 -5,2 -9,4 -11,7 -2,2 -6,12 -12,28 -5,15 -11,31 -17,48 -3,8 -19,58 -33,99 4,1 9,1 13,1 6,0 13,0 19,-1z"/>
     <g>
      <g style="clip-path:url(#id1)">
       <image x="326" y="301" width="394" height="388" xlink:href="icon_Images\icon_ImgID2.png"/>
      </g>
     </g>
     <path class="fil3" d="M636 548c-17,32 -49,56 -86,64l-9 25c55,-7 101,-41 121,-89 1,-1 1,-1 1,-2 7,-17 11,-35 11,-54 0,-81 -68,-146 -152,-146 -84,0 -152,65 -152,146 0,8 1,17 2,25l24 0c-1,-8 -2,-17 -2,-25 0,-68 57,-123 128,-123 71,0 128,55 128,123 0,4 0,9 0,13 -2,16 -7,30 -14,43zm-135 65c-38,-6 -70,-28 -89,-58l-27 0c20,41 60,71 108,80l8 -22z"/>
     <path class="fil4" d="M650 505c0,0 0,0 0,0l0 0z"/>
     <g>
      <g style="clip-path:url(#id2)">
       <image x="298" y="425" width="253" height="140" xlink:href="icon_Images\icon_ImgID3.png"/>
      </g>
     </g>
     <path class="fil3" d="M386 541l12 0c-2,-3 -3,-7 -4,-11l-12 0c1,4 2,8 4,11zm-54 7l0 -25 -16 0 6 25 10 0zm50 0c-4,-8 -7,-16 -8,-25l-39 0 0 25 47 0zm26 0l88 0c11,0 20,-3 26,-11 6,-7 9,-15 9,-25 0,-10 -3,-18 -9,-25 -6,-7 -15,-11 -26,-11l-40 0c-3,0 -6,-1 -8,-3 -1,-2 -2,-5 -2,-7 0,-3 1,-6 2,-8 2,-2 5,-3 8,-3l69 0 0 -25 -74 0c-11,0 -20,4 -26,11 -6,7 -9,15 -9,25 0,9 3,18 9,24 6,8 15,12 26,12l41 0c3,0 5,1 7,3 2,2 2,4 2,7 0,3 0,6 -2,8 -2,2 -4,3 -7,3l-94 0c2,9 6,17 10,25z"/>
     <g>
      <g>
       <g style="clip-path:url(#id3)">
        <image x="335" y="330" width="379" height="352" xlink:href="icon_Images\icon_ImgID4.png"/>
       </g>
      </g>
      <path class="fil5" d="M502 615c0,0 -1,0 -2,0l-7 20c-42,-8 -79,-33 -101,-67 22,35 59,61 103,69l7 -22zm41 21l-1 3c55,-7 101,-41 122,-89 0,0 0,-1 1,-2 7,-17 10,-35 10,-54 0,-28 -8,-54 -22,-76 13,21 21,47 21,74 0,19 -4,37 -11,54 0,1 0,1 -1,2 -20,47 -65,81 -119,88zm-170 -119c0,1 0,1 0,2l25 0c-2,-8 -3,-16 -3,-25 0,-68 57,-123 128,-123 47,0 87,23 110,59 -23,-37 -64,-61 -111,-61 -71,0 -128,55 -128,123 0,8 1,17 2,25l-23 0z"/>
     </g>
     <line class="fil0" x1="478" y1="557" x2="478" y2= "591" />
     <path class="fil0" d="M364 493c1,7 1,13 3,19l-20 0c-1,-6 -1,-12 -2,-19l-2 0c0,7 1,15 2,22l1 0 23 0c-1,-7 -2,-14 -2,-22l-3 0z"/>
     <path class="fil0" d="M365 514l-19 0c-1,-7 -2,-13 -2,-19l-3 0c1,7 1,14 3,21l0 0 24 0c-2,-7 -3,-14 -3,-21l-2 0c0,6 1,13 2,19z"/>
     <line class="fil0" x1="458" y1="566" x2="507" y2= "566" />
     <path class="fil0" d="M392 568c0,0 0,0 0,0 0,0 0,0 0,0l2 2c1,2 2,3 3,5l2 0c-5,-6 -8,-12 -12,-19l24 0c4,7 9,13 14,19l2 0c-6,-6 -11,-13 -15,-20l-27 0c2,4 5,9 7,13z"/>
    </g>
    <path class="fil6" d="M685 607c-1,-2 -10,-11 -12,-12 1,3 10,10 12,12z"/>
    <path class="fil7" d="M654 575l-1 0 4 4c1,1 1,2 2,2 2,3 0,1 3,2 -2,-3 -4,-3 -6,-6 -1,-1 -1,-1 -1,-1l-1 -1z"/>
    <path class="fil8" d="M769 710c0,22 -17,39 -38,39 -22,0 -39,-17 -39,-39 0,-21 17,-38 39,-38 21,0 38,17 38,38z"/>
    <path class="fil9" d="M685 710c0,-25 20,-45 46,-45l0 0c25,0 45,20 45,45l0 0c0,26 -20,46 -45,46l0 0c-26,0 -46,-20 -46,-46l0 0zm17 -28c-8,7 -12,17 -12,28l0 0c0,12 4,22 12,29l0 0c7,8 17,12 29,12l0 0c11,0 21,-4 28,-12l0 0c8,-7 12,-17 12,-29l0 0c0,-11 -4,-21 -12,-28l0 0c-7,-8 -17,-12 -28,-12l0 0c-12,0 -22,4 -29,12l0 0z"/>
    <path class="fil10" d="M729 756l0 0 0 0c-1,0 -1,0 -1,0l0 0 0 0c0,0 -1,0 -1,0l0 0 0 0c0,0 0,0 0,0l0 0 0 0c-1,0 -1,0 -2,0l0 0 0 0c0,0 0,0 0,0l0 0 0 0c0,0 0,0 -1,0l0 0 0 0c0,0 0,0 0,0l0 0 0 0c0,0 0,0 0,0l0 0 0 0c-1,0 -1,0 -1,0l0 0 0 0c0,0 0,0 0,0l0 0 0 0c0,0 -1,0 -1,0l0 0 0 0c0,0 0,0 0,0l0 0 0 0c0,0 0,0 0,0l0 0 0 0 0 0 0 0 0 0c-1,0 -1,-1 -1,-1l0 0 0 0c0,0 0,0 0,0l0 0 0 0 -1 0 0 0 0 0c0,0 0,0 0,0l0 0 0 0c0,0 0,0 0,0l0 0 0 0c0,0 0,0 0,0l0 0 0 0c0,0 -1,0 -1,0l0 0 0 0c0,0 0,0 0,0l0 0 0 0c0,0 0,0 0,0l0 0 0 0 -1 0 0 0 0 0c0,0 0,0 0,0l0 0 0 0c0,0 0,0 0,0l0 0 0 0c0,0 0,0 0,0l0 0 0 0c0,0 0,0 -1,0l0 0 0 0c0,0 0,-1 0,-1l0 0 0 0c0,0 0,0 -1,0l0 0 0 0 0 0 0 0 0 0 0 0 0 0 0 0 0 0 0 0 0 0c0,0 0,0 0,0l0 0 0 0c0,0 0,0 0,0l0 0 0 0c0,0 0,0 0,0l0 0 0 0 -1 0 0 0 0 0c0,0 0,0 -1,-1l0 0 0 0c0,0 0,0 0,0l0 0 0 0c0,0 0,0 0,0l0 0 0 0 0 0 0 0 0 0 -1 0 0 0 0 0 0 0 0 0 0 0 0 0 0 0 0 0c0,0 -1,0 -1,0l0 0 0 0 0 0 0 0 0 0c0,-1 0,-1 0,-1l0 0 0 0 0 0 0 0 0 0 -1 0 0 0 0 0c0,0 0,0 0,0l0 0 0 0 0 0 0 0 0 0c-1,0 -1,-1 -2,-1l0 0 0 0 0 0 0 0 0 0c0,0 -1,0 -1,0l0 0 0 0c0,0 0,0 0,0l0 0 0 0 0 -1 0 0 0 0c0,0 0,0 0,0l0 0 0 0 0 0 0 0 0 0c0,0 -1,0 -1,0l0 0 0 0c0,0 0,0 0,0l0 0 0 0c0,0 -1,0 -1,-1l0 0 0 0 0 0 0 0 0 0c0,0 0,0 0,0l0 0 0 0c0,0 0,0 0,0l0 0 0 0c0,0 0,0 0,0l0 0 0 0c0,0 -1,0 -1,0l0 0 0 0c0,0 0,-1 -1,-1l0 0 0 0 0 0 0 0 0 0c0,0 0,0 0,0l0 0 0 0c0,0 0,0 0,0l0 0 0 0c0,0 0,0 0,0l0 0 0 0 0 0 0 0 0 0 -1 0 0 0 0 0c0,-1 0,-1 0,-1l0 0 0 0c0,0 0,0 -1,0l0 0 0 0c0,0 0,0 0,0l0 0 0 0 0 0 0 0 0 0 0 0 0 0 0 0c0,-1 0,-1 0,-1l0 0 0 0 0 0 0 0 0 0c-1,0 -1,0 -1,0l0 0 0 0c0,0 0,0 0,0l0 0 0 0c0,0 0,0 0,-1l0 0 0 0c0,0 0,0 -1,0l0 0 0 0 0 0 0 0 0 0 0 0 0 0 0 0c0,0 0,0 0,0l0 0 0 0c0,0 0,0 0,0l0 0 0 0c-1,-1 -1,-1 -1,-1l0 0 0 0 0 0 0 0 0 0 0 0 0 0 0 0 0 0 0 0 0 0 0 0 0 0 0 0 0 0 0 0 0 0c-1,-1 -1,-1 -2,-2l0 0 0 0 0 0 0 0 0 0 0 0 0 0 0 0 0 0 0 0 0 0 0 0 0 0 0 0c0,0 -1,-1 -1,-1l0 0 0 0c0,0 0,0 0,0l0 0 0 0 0 0 0 -1 0 0 0 0 0 0 0 0c0,0 0,0 -1,0l0 0 0 0 0 0 0 0 0 0c0,0 0,0 0,0l0 0 0 0c0,0 0,0 0,0 0,0 0,-1 0,-1l0 0 0 0 0 0 0 0 0 0c0,0 -1,0 -1,0l0 0 0 0 0 0 0 0 0 0 0 0 0 0 0 0c0,0 0,0 0,-1l0 0 0 0 0 0 0 0 0 0c0,0 0,0 -1,0l0 0 0 0c0,-1 0,-1 0,-1l0 0 0 0c0,0 0,0 0,0l0 0 0 0c0,0 0,0 0,0l0 0 0 0c0,0 0,0 0,0l0 0 0 0 0 -1 0 0 0 0c-1,0 -1,0 -1,-1l0 0 0 0 0 0 0 0 0 0c0,0 0,0 0,0l0 0 0 0c0,0 0,0 0,0l0 0 0 0 0 0 0 0 0 0c-1,-1 -1,-1 -1,-1l0 0 0 0c0,0 0,0 0,0l0 0 0 0 0 -1 0 0 0 0c0,0 0,0 0,0l0 0 0 0 0 0 0 0 0 0 0 0 0 0 0 0c-1,0 -1,0 -1,0l0 0 0 0c0,0 0,-1 0,-1l0 0 0 0 0 0 0 0 0 0 0 0 0 0 0 0 0 0 0 0 0 0 0 0 0 0 0 0c-1,-1 -1,-1 -1,-2l0 0 0 0c0,0 0,0 0,0l0 0 0 0 0 -1 0 0 0 0 0 0 0 0 0 0c0,0 -1,0 -1,0l0 0 0 0 0 0 0 0 0 0c0,0 0,-1 0,-1l0 0 0 0 0 0 0 0 0 0c0,0 0,0 0,0l0 0 0 0c0,-1 0,-1 0,-1l0 0 0 0c0,0 0,0 0,0l0 0 0 0 0 0 0 0 0 0 -1 0 0 0 0 0c0,0 0,0 0,-1l0 0 0 0c0,0 0,0 0,0l0 0 0 0 0 0 0 0 0 0 0 0 0 0 0 0 0 0 0 0 0 0c0,-1 0,-1 0,-1l0 0 0 0c0,0 0,-1 -1,-1l0 0 0 0c0,-1 0,-1 0,-1l0 0 0 0 0 0 0 0 0 0 0 0 0 0 0 0c0,0 0,0 0,0l0 0 0 0c0,-1 0,-1 0,-1l0 0 0 0 0 -1 0 0 0 0 0 0 0 0 0 0c0,0 0,0 0,0l0 0 0 0m0 0l0 0 0 0c0,0 0,0 0,0l0 0 0 0c0,0 0,-1 0,-1l0 0 0 0 0 0 0 0 0 0c0,0 -1,0 -1,0l0 0 0 0c0,0 0,-1 0,-1l0 0 0 0c0,0 0,0 0,0l0 0 0 0c0,0 0,0 0,0l0 -1 0 0c0,0 0,0 0,0l0 0 0 0c0,0 0,0 0,0l0 0 0 0c0,0 0,0 0,0l0 0 0 0c0,-1 0,-1 0,-1l0 0 0 0c0,0 0,0 0,-1l0 0 0 0c0,0 0,0 0,0l0 0 0 0c0,0 0,0 0,0l0 0 0 0c0,0 0,-1 0,-1l0 0 0 0c0,0 0,0 0,0l0 0 0 0c0,0 0,-1 0,-1l0 0 0 0c0,0 0,0 0,0l0 0 0 0c0,-1 0,-1 0,-1l0 0 0 0c0,0 0,-1 0,-1l0 0 0 0c0,-1 -1,-1 -1,-2 0,0 1,0 1,-1l0 0 0 0c0,0 0,-1 0,-1l0 0 0 0c0,0 0,-1 0,-1l0 0 0 0c0,0 0,0 0,0l0 0 0 0c0,-1 0,-1 0,-1l0 0 0 0c0,0 0,-1 0,-1l0 0 0 0c0,0 0,0 0,0l0 0 0 0c0,0 0,0 0,-1l0 0 0 0c0,0 0,0 0,0l0 0 0 0c0,0 0,0 0,0l0 0 0 0c0,-1 0,-1 0,-1l0 0 0 0c0,0 0,0 0,0l0 0 0 0c0,-1 0,-1 0,-1l0 0 0 0c0,0 0,0 0,0l0 0 0 0c0,0 0,0 0,0l0 0 0 0 0 0 0 0 0 0c0,-1 0,-1 0,-1l0 0 0 0c1,0 1,0 1,-1l0 0 0 0c0,0 0,0 0,0l0 0 0 0 0 0 0 0 0 0c0,0 0,0 0,0l0 0 0 0 0 0 0 0 0 0c0,-1 0,-1 0,-1l0 0 0 0c0,0 0,0 0,-1l0 0 0 0c0,0 0,0 0,0l0 0 0 0 0 0 0 0 0 0c0,0 0,0 0,0l0 0 0 0c0,0 0,0 0,-1l0 0 0 0c0,0 0,0 0,0l0 0 0 0c1,0 1,0 1,-1l0 0 0 0 0 0 0 0 0 0 0 0 0 0 0 0 0 0 0 0 0 0c0,0 0,0 0,0l0 0 0 0 0 0 0 0 0 0 0 0 0 0 0 0 0 0 0 0 0 0 0 -1 0 0 0 0 0 0 0 0 0 0c0,0 0,0 0,-1l0 0 0 0c0,0 0,0 1,0l0 0 0 0c0,0 0,0 0,0l0 0 0 0 0 0 0 0 0 0c0,0 0,-1 0,-1l0 0 0 0 0 0 0 0 0 0c0,0 0,0 0,0l0 0 0 0c0,0 0,0 0,0l0 0 0 0c0,-1 0,-1 0,-1l0 0 0 0 0 0 0 0 0 0c0,0 0,0 0,0l0 0 0 0 0 0 0 0 0 0 1 0 0 0 0 0c0,-1 0,-1 0,-1l0 0 0 0 0 0 0 0 0 0c0,0 0,-1 0,-1l0 0 0 0 0 0 0 0 0 0 0 0 0 0 0 0 0 0 0 0 0 0 0 0 0 0 0 0 0 0 0 0 0 0 0 0 1 0 0 0 0 -1 0 0 0 0 0 0 0 0 0 0c0,0 0,-1 0,-1l0 0 0 0c0,0 0,0 0,0l0 0 0 0c1,0 1,0 1,0l0 0 0 -1 0 0 0 0 0 0 0 0 0 0 0 0 0 0 0 0 0 0c0,0 0,0 0,0l0 0 0 0c0,0 0,-1 0,-1l0 0 0 0c1,0 1,0 1,0l0 0 0 0c0,0 0,0 0,0l0 0 0 0 0 0 0 0 0 0 0 -1 0 0 0 0 0 0 0 0 0 0c0,0 0,0 1,-1l0 0 0 0c0,0 0,0 0,0l0 0 0 0 0 0 0 0 0 0c0,0 0,0 0,0l0 0 0 0 0 0 0 0 0 0 0 0 0 0 0 0c0,-1 0,-1 0,-1l0 0 0 0c0,0 0,0 0,0l0 0 0 0c1,0 1,0 1,0 0,0 0,-1 0,-1l0 0 0 0 0 0 0 0 0 0c0,0 0,0 0,0l0 0 0 0 0 0 0 0 0 0 1 0 0 0 0 0c0,0 0,0 0,0l0 0 0 0c0,-1 0,-1 0,-1l0 0 0 0c0,0 0,0 0,0l0 0 0 0c0,0 0,0 1,-1l0 0 0 0 0 0 0 0 0 0c0,0 0,0 0,0l0 0 0 0 0 0 0 0 0 0c0,0 0,0 0,0l0 0 0 0 0 0 0 0 0 0c0,0 0,-1 1,-1l0 0 0 0 0 0 0 0 0 0c0,0 0,0 0,-1l0 0 0 0 0 0 0 0 0 0 0 0 0 0 0 0 1 0 0 0 0 0 0 0 0 0 0 0 0 0 0 0 0 0c0,0 0,0 0,0l0 0 0 0 0 -1 0 0 0 0 0 0 0 0 0 0 0 0 0 0 0 0 1 0 0 0 0 0 0 0 0 0 0 0 0 0 0 0 0 0c0,0 0,0 0,0l0 0 0 0c1,-1 1,-1 1,-1l0 0 0 0c0,0 0,0 0,0l0 0 0 0 0 0 0 0 0 0c0,0 0,0 1,0l0 0 0 -1 0 0 0 0 0 0c0,0 0,0 0,0l0 0 0 0 0 0 0 0 0 0c0,0 0,0 1,0l0 0 0 0c0,-1 0,-1 0,-1l0 0 0 0c0,0 0,0 0,0l0 0 0 0c0,0 0,0 0,0l0 0 0 0c0,0 0,0 1,0l0 0 0 0c0,0 0,-1 0,-1l0 0 0 0c1,0 1,0 1,0l0 0 0 0c0,0 0,0 0,0l0 0 0 0c0,0 0,0 0,0l0 0 0 0c0,0 0,-1 1,-1l0 0 0 0c0,0 0,0 0,0l0 0 0 0c0,0 0,0 0,0l0 0 0 0 1 0 0 0 0 0 0 0 0 0 0 0 0 0 0 0 0 0c0,0 0,-1 0,-1l0 0 0 0c0,0 0,0 0,0l0 0 0 0c1,0 1,0 1,0l0 0 0 0c0,0 0,0 0,0l0 0 0 0 0 0 0 0 0 0 1 -1 0 0 0 0c0,0 0,0 0,0l0 0 0 0c0,0 1,0 1,0l0 0 0 0 0 0 0 0 0 0c1,-1 1,-1 2,-1l0 0 0 0 0 0 0 0 0 0c0,0 0,0 0,0l1 0 0 -1 0 0 0 0 0 0c0,0 0,0 0,0l0 0 0 0c0,0 1,0 1,0l0 0 0 0c0,0 0,0 0,0l0 0 0 0c0,0 0,0 0,0l0 0 0 0c1,0 1,0 1,0l0 0 0 0c0,0 0,0 0,-1l0 0 0 0c0,0 0,0 0,0l0 0 0 0c1,0 1,0 1,0l0 0 0 0c0,0 0,0 0,0l0 0 0 0 0 0 0 0 0 0 0 0 0 0 0 0 1 0 0 0 0 0 0 0 0 0 0 0 0 0 0 0 0 0c0,0 1,-1 1,-1l0 0 0 0c0,0 0,0 1,0l0 0 0 0 0 0 0 0 0 0 0 0 0 0 0 0 0 0 0 0 0 0c0,0 0,0 0,0l0 0 0 0c0,0 0,0 1,0l0 0 0 0c0,0 0,0 0,0l0 0 0 0c0,0 1,0 1,0l0 0 0 0 0 0 0 0 0 0c0,0 0,0 0,0l0 0 0 0c0,0 0,0 0,0l0 0 0 0c0,-1 1,-1 1,-1l0 0 0 0c0,0 0,0 0,0l0 0 0 0c1,0 1,0 1,0l0 0 0 0 0 0 0 0 0 0c0,0 0,0 0,0l1 0 0 0 0 0 0 0 0 0c0,0 1,0 1,0l0 0 0 0c0,0 0,0 0,0l0 0 0 0c0,0 0,0 1,0l0 0 0 0c0,0 0,0 0,0l0 0 0 0c0,0 1,0 1,0l0 0 0 0c0,0 1,0 1,0l0 0 0 0c0,0 0,0 0,-1l1 0 0 0c0,0 1,0 1,0l3 0c0,0 1,0 2,0l0 0 0 0c0,1 0,1 0,1l0 0 0 0c0,0 1,0 1,0l0 0 0 0c0,0 0,0 1,0l0 0 0 0c0,0 0,0 0,0l0 0 0 0c0,0 0,0 0,0l0 0 0 0c1,0 1,0 1,0l0 0 0 0c0,0 0,0 0,0l0 0 0 0c0,0 1,0 1,0l0 0 0 0 1 0 0 0 0 0c0,0 0,0 0,0l0 0 0 0 0 0 0 0 0 0c0,0 0,0 1,0l0 0 0 0c0,0 0,0 0,0l0 0 0 0c0,0 0,0 0,0l0 0 0 0c0,0 1,0 1,1l0 0 0 0c0,0 0,0 0,0l0 0 0 0c0,0 0,0 0,0l0 0 0 0 0 0 0 0 0 0 0 0 0 0 0 0c1,0 1,0 1,0l0 0 0 0c1,0 1,0 1,0l0 0 0 0c0,0 0,0 0,0l0 0 0 0c0,0 0,0 0,0l0 0 0 0c0,0 0,0 0,0l0 0 0 0c1,0 1,0 1,0l0 0 0 0c0,0 1,1 1,1l0 0 0 0 0 0 0 0 0 0 0 0 0 0 0 0 0 0 0 0 0 0 0 0 0 0 0 0 1 0 0 0 0 0 0 0 0 0 0 0c0,0 0,0 0,0l0 0 0 0c0,0 0,0 1,0l0 0 0 0c0,0 0,0 0,0l0 0 0 0 0 0 0 0 0 0 0 1 0 0 0 0 0 0 0 0 0 0 1 0 0 0 0 0c0,0 0,0 0,0l0 0 0 0c0,0 0,0 0,0l0 0 0 0c0,0 1,0 1,0l0 0 0 0 0 0 0 0 0 0c0,0 0,0 0,0l0 0 0 0 1 0 0 1 0 0 0 0 0 0 0 0c0,0 0,0 0,0l0 0 0 0c1,0 1,0 2,1l0 0 0 0 0 0 0 0 0 0 0 0 0 0 0 0 0 0 0 0 0 0c0,0 0,0 1,0l0 0 0 0c0,0 0,0 0,0l0 0 0 0 0 0 0 0 0 0c0,0 0,0 0,0l0 0 0 0 0 0 0 0 0 0 1 1 0 0 0 0c0,0 0,0 0,0l0 0 0 0c0,0 1,0 1,0l0 0 0 0c0,0 0,0 0,1l0 0 0 0 0 0 0 0 0 0 0 0 0 0 0 0c1,0 1,0 1,0l0 0 0 0 0 0 0 0 0 0c0,0 0,0 0,0l0 0 0 0c0,0 1,0 1,1l0 0 0 0c0,0 0,0 0,0l0 0 0 0c0,0 0,0 0,0l0 0 0 0 0 0 0 0 0 0c0,0 0,0 0,0l0 0 0 0c0,0 1,0 1,0l0 0 0 0c0,0 0,0 0,0l0 0 0 0c0,0 0,1 0,1l0 0 0 0c0,0 0,0 1,0l0 0 0 0c0,0 0,0 0,0l0 0 0 0c0,0 0,0 0,0l0 0 0 0 0 0 0 0 0 0c0,0 0,0 0,0l0 0 0 0c0,0 0,1 0,1l0 0 0 0c1,0 1,0 1,0l0 0 0 0c0,0 0,0 0,0l0 1 0 0 1 0 0 0 0 0c0,0 0,0 0,0l0 0 0 0 0 0 0 0 0 0c0,0 0,0 0,0l0 0 0 0c0,0 1,0 1,1l0 0 0 0 0 0 0 0 0 0 0 0 0 0 0 0c0,0 0,0 1,0l0 0 0 0 0 0 0 0 0 0 0 0 0 0 0 0 0 1 0 0 0 0 0 0 0 0 0 0 0 0 0 0 0 0c0,0 0,0 0,0l0 0 0 0 0 0 0 0 0 0 0 0 0 0 0 0 0 0 0 0 0 0 0 0 0 0 0 0c1,1 1,1 1,1l0 0 0 0 0 0 0 0 0 0 0 0 0 0 0 0c0,0 1,1 1,1l0 0 0 0c0,0 0,0 0,0l0 0 0 0 0 0 0 0 0 0c0,0 0,0 0,0l0 0 0 0 0 0 0 0 0 0c1,1 1,1 1,1l0 0 0 0c0,0 0,0 0,0l0 0 0 0c0,0 0,0 0,1l0 0 0 0c0,0 0,0 1,0l0 0 0 0 0 0 0 0 0 0 0 0 0 0 0 0c0,0 0,0 0,0l0 0 0 0 0 0 0 0 0 0 0 0 0 0 0 0c0,1 0,1 1,1l0 0 0 0c0,0 0,0 0,0l0 0 0 0c0,0 0,0 0,0l0 0 0 0 0 1 0 0 0 0 0 0 0 0 0 0c0,0 0,0 0,0l0 0 0 0c0,0 0,0 0,0l0 0 0 0c0,0 1,1 1,1l0 0 0 0c0,0 0,0 0,0l0 0 0 0c0,0 0,0 0,0l0 0 0 0c0,0 0,0 0,1l0 0 0 0 0 0 0 0 0 0c0,0 0,0 0,0l0 0 0 0c1,0 1,0 1,0l0 0 0 0c0,0 0,1 0,1l0 0 0 0c0,0 0,0 0,0l0 0 0 0 0 0 0 0 0 0c0,0 0,0 0,1l0 0 0 0 0 0 0 0 0 0c1,0 1,0 1,0l0 0 0 0 0 0 0 0 0 0c0,0 0,0 0,1l0 0 0 0 0 0 0 0 0 0c0,0 0,0 1,1l0 0 0 0 0 0 0 0 0 0c0,0 0,0 0,0l0 0 0 0c0,0 0,1 0,1l0 0 0 0 0 0 0 0 0 0 0 0 0 0 0 0c0,0 0,0 0,0l0 0 0 0 0 0 0 0 0 0 0 1 0 0 1 0c0,0 0,0 0,0l0 0 0 0 0 0 0 0 0 0c0,0 0,1 0,1l0 0 0 0c0,0 0,0 0,0l0 0 0 0 0 0 0 0 0 0 0 1 0 0 0 0c0,0 0,0 0,0l0 0 0 0c0,0 0,0 1,0l0 0 0 0c0,0 0,0 0,0l0 0 0 0c0,0 0,1 0,1l0 0 0 0 0 0 0 0 0 0c0,0 0,0 0,0l0 0 0 0c0,0 0,0 0,1l0 0c0,0 0,0 0,0l0 0 0 0 0 0 0 0 0 0c0,0 0,1 1,1l0 0 0 0c0,0 0,0 0,0l0 0 0 0c0,0 0,0 0,1l0 0 0 0 0 0 0 0 0 0c0,0 0,0 0,0l0 0 0 0 0 0 0 0 0 0c0,0 0,0 0,0l0 0 0 0c0,1 0,1 0,1l0 0 0 0c0,0 0,0 0,0l0 0 0 0 0 1 0 0 0 0c0,0 0,0 0,0l0 0 0 0c0,0 0,0 0,0l0 0 0 0 0 0 0 0 0 0c0,0 0,0 0,0l0 0 0 0 0 1 0 0 0 0c1,0 1,0 1,1l0 0 0 0c0,0 0,0 0,0l0 0 0 0c0,0 0,0 0,0l0 0 0 0c0,0 0,0 0,0l0 0 0 0c0,0 0,0 0,1l0 0 0 0c0,0 0,0 0,0l0 0 0 0c0,0 0,0 0,1l0 0 0 0c0,0 0,0 0,0l0 0 0 0c0,0 0,0 0,0l0 1 0 0 0 0 0 0 0 0c0,0 0,0 0,0l0 0 0 0c0,0 0,1 0,1l0 0 0 0c0,0 0,0 0,1l0 0 0 0c0,0 0,0 0,0l0 0 0 0c0,1 0,1 1,2l0 1 0 0c0,0 0,0 0,0 0,1 0,1 0,1l0 0 0 1c-1,0 -1,1 -1,1l0 0 0 0c0,0 0,0 0,0l0 0 0 1c0,0 0,0 0,0l0 0 0 0c0,0 0,1 0,1l0 0 0 0c0,0 0,0 0,1l0 0 0 0c0,0 0,0 0,0l0 0 0 0c0,0 0,0 0,0l0 0 0 0c0,1 0,1 0,1l0 0 0 0c0,0 0,0 0,1l0 0 0 0c0,0 0,0 0,0l0 0 0 0c0,0 0,0 0,0l0 0 0 0c0,0 0,0 0,0l0 0 0 1c0,0 0,0 0,0l0 0 0 0c0,0 0,0 0,0l0 0 0 0c0,0 0,0 0,0l0 0 0 0c0,1 0,1 -1,1l0 0 0 0 0 0 0 0 0 0 0 1 0 0 0 0c0,0 0,0 0,0l0 0 0 0c0,0 0,0 0,0l0 0 0 0c0,0 0,0 0,0l0 0 0 0 0 0 0 0 0 0c0,1 0,1 0,1l0 0 0 0c0,1 0,1 0,1l0 0 0 0c0,0 0,0 0,0l0 0 0 0 0 0 0 0 0 0c0,0 0,0 0,0l0 0 0 0 0 0 0 0 0 0 0 1 0 0 0 0c0,0 -1,0 -1,0l0 0 0 0c0,0 0,0 0,0l0 0 0 0 0 0 0 0 0 0 0 1 0 0 0 0 0 0 0 0 0 0 0 0 0 0 0 0 0 0 0 0 0 0c0,0 0,0 0,0l0 0 0 0c0,0 0,0 0,0l0 0 0 0c0,0 0,0 0,0l0 0 0 0 0 1 0 0 0 0c0,0 0,0 0,0l0 0 0 0c0,1 0,1 -1,1l0 0 0 0c0,0 0,0 0,0l0 0 0 0c0,0 0,0 0,0l0 0 0 0c0,0 0,0 0,0l0 0 0 0c0,0 0,1 0,1l0 0 0 0 0 0 0 0 0 0c0,0 0,0 0,0l0 0 0 0c0,0 0,1 0,1l0 0 0 0c0,0 0,0 0,0l0 0 0 0 0 0 0 0 0 0 0 0 -1 0 0 0 0 0 0 0 0 0 0 1 0 0 0 0 0 0 0 0 0 0c0,0 0,0 0,0l0 0 0 0c0,0 0,1 0,1l0 0 0 0 0 0 0 0 0 0 0 0 0 0 0 0 -1 0 0 0 0 0 0 0 0 0 0 0 0 1 0 0 0 0 0 0 0 0 0 0 0 0 0 0 0 0c0,0 0,0 0,1l0 0 0 0c0,0 0,0 0,0l0 0 0 0 -1 0 0 0 0 0 0 0 0 0 0 0 0 0 0 0 0 0c0,1 0,1 0,1l0 0 0 0c0,0 0,0 0,0l0 0 0 0c0,0 0,0 0,1l0 0 0 0c0,0 -1,0 -1,0l0 0 0 0c0,0 0,0 0,0l0 0 0 0 0 0 0 0 0 0 0 0 0 0 0 0c0,0 0,0 0,0l0 0 0 0 0 1 0 0 0 0 0 0 0 0 0 0c0,0 0,0 0,0l0 0 0 0c-1,0 -1,1 -1,1l0 0 0 0 0 0 0 0 0 0c0,0 0,0 0,0l0 0 0 0c0,0 0,0 0,0l0 0 0 0c0,0 0,0 0,0l0 0 0 0c0,0 0,0 0,0l0 0 0 0c0,1 0,1 0,1l0 0 0 0c-1,0 -1,0 -1,0l0 0 0 0c0,0 0,0 0,1l0 0 0 0c0,0 0,0 0,0l0 0 0 0 0 0 0 0 0 0c0,0 0,0 0,0l0 0 0 0c0,0 -1,0 -1,0l0 0 0 0c0,0 0,0 0,0l0 0 0 0c0,1 0,1 0,1l0 0 0 0c0,0 0,0 0,0l0 0 0 0 0 0 0 0 0 0c-1,0 -1,0 -1,0l0 0 0 1 0 0 0 0 0 0 0 0 0 0 0 0c0,0 0,0 0,0l0 0 0 0 0 0 0 0 0 0c0,0 -1,1 -1,1l0 0 0 0 0 0 0 0 0 0 0 0 0 0 0 0 0 0 0 0 0 0 0 0 0 0 0 0 0 0 0 0 0 0c-1,1 -1,1 -2,2l0 0 0 0 0 0 0 0 0 0 0 0 0 0 0 0 0 0 0 0 0 0 0 0 0 0 0 0 0 0 0 0 0 0 0 0 0 0 0 0c0,0 -1,1 -1,1l0 0 0 0c0,0 0,0 0,0l0 0 0 0 0 0 0 0 0 0 0 0 0 0 0 0c0,0 -1,0 -1,0l0 0 0 0c0,1 0,1 0,1l0 0 0 0c0,0 0,0 -1,0l0 0 0 0c0,0 0,0 0,0l0 0 0 0 0 1 0 0 0 0 0 0 0 0 0 0c0,0 0,0 0,0l0 0 0 0c0,0 -1,0 -1,0l0 0 0 0c0,0 0,0 0,1l0 0 0 0c0,0 -1,0 -1,0l0 0 0 0c0,0 0,0 0,0l0 0 0 0 0 0 0 0 0 0 0 0 0 0 0 0c0,0 0,0 0,0l0 0 0 0c0,0 0,0 0,0l0 0 0 0c-1,1 -1,1 -1,1l0 0 0 0 0 0 0 0 0 0c0,0 0,0 -1,0l0 0 0 0c0,0 0,0 0,0l0 0 0 0c0,0 0,0 0,0l0 0 0 0 0 0 0 0 0 0c0,1 -1,1 -1,1l0 0 0 0c0,0 0,0 0,0l0 0 0 0 0 0 0 0 0 0c0,0 -1,0 -1,0l0 0 0 0 0 0 0 0 0 0 0 0 0 0 0 0c0,0 0,0 0,1l0 0 0 0c0,0 -1,0 -1,0l0 0 0 0 0 0 0 0 0 0 0 0 0 0 0 0 0 0 0 0 0 0c-1,0 -1,1 -2,1l0 0 0 0 0 0 0 0 0 0c0,0 0,0 0,0l0 0 0 0 -1 0 0 0 0 0 0 0 0 0 0 0c0,0 0,0 0,0l0 0 0 0 0 1 0 0 0 0c0,0 0,0 0,0l0 0 0 0c-1,0 -1,0 -1,0l0 0 0 0c0,0 0,0 0,0l0 0 0 0c0,0 0,0 0,0l0 0 0 0c0,0 0,0 -1,0l0 0 0 0c0,0 0,0 0,0l0 0 0 0c0,0 0,0 0,0l0 0 0 0c0,0 0,0 0,1l0 0 0 0c-1,0 -1,0 -2,0l0 0 0 0c0,0 0,0 0,0l0 0 0 0 0 0 0 0 0 0c0,0 0,0 0,0l0 0 0 0 0 0 0 0 0 0c-1,0 -1,0 -1,1l0 0 0 0 -1 0 0 0 0 0c0,0 0,0 0,0l0 0 0 0c0,0 0,0 0,0l0 0 0 0c0,0 0,0 0,0l0 0 0 0c0,0 0,0 0,0l0 0 0 0 -1 0 0 0 0 0c0,0 0,0 -1,0l0 0 0 0c0,0 0,0 0,0l0 0 0 0c0,0 0,0 0,0l0 0 0 0c0,0 0,0 0,0l0 0 0 0c0,0 0,0 0,0l0 0 0 0c-1,0 -1,0 -1,0l0 0 0 0c0,0 0,1 -1,1l0 0 0 0 0 0 0 0 0 0c0,0 0,0 0,0l0 0 0 0c0,0 0,0 0,0l0 0 0 0c0,0 -1,0 -1,0l0 0 0 0c0,0 0,0 0,0l0 0 0 0c0,0 -1,0 -1,0l0 0 0 0c0,0 0,0 0,0l0 0 0 0c-1,0 -1,0 -1,0l0 0 0 0c0,0 0,0 0,0l0 0 0 0c0,0 0,0 -1,0l0 0 0 0c0,0 0,0 0,0l-1 0 0 0c0,0 0,0 0,0l0 0 0 0c0,0 -1,0 -1,0l0 0 0 0c0,0 0,0 -1,0l0 0 0 0c-1,0 -1,0 -1,0 -1,0 -1,0 -2,0m2 0c-26,0 -46,-20 -46,-46 0,-25 20,-45 46,-45 25,0 45,20 45,45 0,26 -20,46 -45,46l0 0z"/>
    <path class="fil11" d="M760 681c-8,-7 -18,-12 -29,-12 -12,0 -22,5 -30,12 -7,8 -12,18 -12,29 0,12 5,22 12,29 8,8 18,12 30,12 11,0 21,-4 29,-12 7,-7 12,-17 12,-29 0,-11 -5,-21 -12,-29zm-1 58c-7,7 -17,12 -28,12 -12,0 -22,-5 -29,-12 -7,-7 -12,-17 -12,-29 0,-11 5,-21 12,-28l0 0c7,-8 17,-12 29,-12 11,0 21,4 28,12 7,7 12,17 12,28 0,12 -5,22 -12,29z"/>
    <path class="fil12" d="M731 710c-18,-8 -30,1 -36,9 4,16 18,28 36,28 20,0 36,-17 36,-37 0,0 0,-1 0,-1 -6,7 -17,11 -36,1z"/>
    <path class="fil13" d="M757 734c-15,14 -39,14 -53,0 -4,-4 -6,-7 -8,-12 2,6 5,10 9,14 14,15 37,15 52,0 8,-8 12,-19 10,-30 1,10 -3,20 -10,28z"/>
    <path class="fil13" d="M757 734c-15,14 -39,14 -53,0 -4,-4 -6,-7 -8,-12 2,6 5,10 9,14 14,15 37,15 52,0 8,-8 12,-19 10,-30 1,10 -3,20 -10,28z"/>
    <g>
     <g style="clip-path:url(#id4)">
      <image x="485" y="673" width="200.246" height="76.8362" xlink:href="icon_Images\icon_ImgID5.png"/>
     </g>
    </g>
    <path class="fil14" d="M504 693l0 38 11 0c5,0 9,-2 13,-6 3,-3 5,-8 5,-13 0,-6 -2,-10 -5,-14 -4,-3 -8,-5 -13,-5l-11 0zm-16 50l0 -63 23 0c7,0 12,1 16,2 3,1 6,3 9,5 4,3 7,7 9,11 2,4 3,9 3,14 0,5 -1,11 -3,15 -3,5 -6,9 -11,12 -3,1 -5,3 -9,3 -3,1 -7,1 -14,1l-23 0zm69 0l0 -63 41 0 0 12 -25 0 0 13 24 0 0 12 -24 0 0 15 26 0 0 11 -42 0zm52 0l0 -63 13 0 20 26 19 -26 14 0 0 63 -15 0 0 -39 -18 23 -18 -23 0 39 -15 0z"/>
   </g>
  </g>
 </g>
</svg>
